<?xml version="1.0" encoding="UTF-8" standalone="no"?>
<!-- Created with Inkscape (http://www.inkscape.org/) -->

<svg
   xmlns:dc="http://purl.org/dc/elements/1.1/"
   xmlns:cc="http://creativecommons.org/ns#"
   xmlns:rdf="http://www.w3.org/1999/02/22-rdf-syntax-ns#"
   xmlns:svg="http://www.w3.org/2000/svg"
   xmlns="http://www.w3.org/2000/svg"
   xmlns:sodipodi="http://sodipodi.sourceforge.net/DTD/sodipodi-0.dtd"
   xmlns:inkscape="http://www.inkscape.org/namespaces/inkscape"
   width="380.3187"
   height="68.166557"
   viewBox="0 0 380.31871 68.166559"
   id="svg3583"
   version="1.1"
   inkscape:version="0.91 r13725"
   sodipodi:docname="flagheader.svg">
  <defs
     id="defs3585" />
  <sodipodi:namedview
     id="base"
     pagecolor="#ffffff"
     bordercolor="#666666"
     borderopacity="1.0"
     inkscape:pageopacity="0.0"
     inkscape:pageshadow="2"
     inkscape:zoom="5.6"
     inkscape:cx="196.77215"
     inkscape:cy="6.1354678"
     inkscape:document-units="px"
     inkscape:current-layer="layer1"
     showgrid="false"
     inkscape:window-width="2560"
     inkscape:window-height="1563"
     inkscape:window-x="0"
     inkscape:window-y="0"
     inkscape:window-maximized="1"
     units="px"
     showborder="true"
     fit-margin-top="0"
     fit-margin-left="0"
     fit-margin-right="0"
     fit-margin-bottom="0" />
  <metadata
     id="metadata3588">
    <rdf:RDF>
      <cc:Work
         rdf:about="">
        <dc:format>image/svg+xml</dc:format>
        <dc:type
           rdf:resource="http://purl.org/dc/dcmitype/StillImage" />
        <dc:title></dc:title>
      </cc:Work>
    </rdf:RDF>
  </metadata>
  <g
     inkscape:label="Layer 1"
     inkscape:groupmode="layer"
     id="layer1"
     transform="translate(-0.88293588,-4.8261693)">
    <path
       style="fill:#0375b4"
       d="m 0.88293588,38.909447 0,-34.0832777 171.65028412,0 171.65028,0 1.04929,2.3029246 c 1.22261,2.6833311 2.00743,2.7737598 8.08144,0.9311403 2.48708,-0.7544816 4.78919,-1.3762717 5.11583,-1.3817549 0.58439,-0.00984 -0.12615,3.9703157 -1.44003,8.0664697 -0.55888,1.742294 -0.20545,2.284183 2.13034,3.266306 l 2.80038,1.177468 -4.57551,3.624301 c -4.26683,3.379801 -5.29668,4.935303 -4.07583,6.156155 0.27481,0.274804 3.28013,-0.01761 6.67847,-0.649786 3.39835,-0.632187 7.75585,-1.432743 9.68332,-1.779014 l 3.50449,-0.629585 -1.51025,2.92049 c -1.78812,3.457856 -1.54227,3.785859 5.43925,7.256952 5.81852,2.892862 5.79296,2.982622 -1.95657,6.872765 -2.65988,1.335217 -4.83616,2.648533 -4.83616,2.918479 0,0.269948 0.63246,1.713811 1.40542,3.208574 1.64046,3.172295 2.00347,3.105352 -7.24375,1.335859 -11.9026,-2.277618 -14.60439,-1.414165 -9.1223,2.915347 1.38867,1.096708 3.46943,2.813754 4.6239,3.815647 l 2.09907,1.821623 -2.78993,0.972572 c -1.53446,0.534919 -2.78501,1.097777 -2.779,1.250787 0.006,0.153017 0.59029,2.454481 1.29837,5.114355 0.70809,2.659881 1.01407,4.831653 0.67995,4.826171 -0.33413,-0.0052 -2.64238,-0.627273 -5.12946,-1.381755 -6.07401,-1.842619 -6.85883,-1.752191 -8.08144,0.931141 l -1.04929,2.302923 -171.65028,0 -171.65028412,0 0,-34.083277 z"
       id="path3637"
       inkscape:connector-curvature="0" />
  </g>
</svg>
