<svg id="Layer_1" data-name="Layer 1" xmlns="http://www.w3.org/2000/svg" viewBox="0 0 24 24"><defs><style>.cls-1{fill:#137991;fill-rule:evenodd;}</style></defs><title>account-issue</title><path class="cls-1" d="M10.4,21.1l1.13-2H8.8a2.74,2.74,0,0,1-2.73-2.74V14.3A2.74,2.74,0,0,1,8.8,11.56H9a4.13,4.13,0,0,0,5.88,0H15a2.7,2.7,0,0,1,1.26.31,2.74,2.74,0,0,1,1.27-.31A2.81,2.81,0,0,1,20,13l2.21,3.82a11.25,11.25,0,1,0-12,6.51A2.82,2.82,0,0,1,10.4,21.1ZM11.94,5.23A3.46,3.46,0,1,1,8.49,8.69,3.46,3.46,0,0,1,11.94,5.23ZM23,22a.94.94,0,0,1-.82,1.41H12.84A.94.94,0,0,1,12,22l4.68-8.12a.94.94,0,0,1,1.63,0L23,22Zm-5.5-1.68a.9.9,0,1,0,.9.9A.9.9,0,0,0,17.53,20.35Zm-.86-3.23.15,2.66a.24.24,0,0,0,.23.22H18a.24.24,0,0,0,.24-.22l.14-2.66a.23.23,0,0,0-.23-.24H16.91a.24.24,0,0,0-.24.24Z"/></svg>