<svg id="Layer_1" data-name="Layer 1" xmlns="http://www.w3.org/2000/svg" viewBox="0 0 24 24"><defs><style>.cls-1{fill:#137991;}</style></defs><title>engIcon</title><path class="cls-1" d="M21.38.8H2.4A1.76,1.76,0,0,0,.64,2.56V15.91A1.76,1.76,0,0,0,2.4,17.67h9.49l4.94,4.95a.4.4,0,0,0,.68-.29V17.67h3.87a1.76,1.76,0,0,0,1.76-1.76V2.56A1.76,1.76,0,0,0,21.38.8ZM10.82,12.93a.22.22,0,0,1-.08.19.29.29,0,0,1-.19.07H5.84a.24.24,0,0,1-.25-.26V5.58a.25.25,0,0,1,.07-.19.22.22,0,0,1,.18-.08h4.62a.28.28,0,0,1,.2.08.25.25,0,0,1,.07.19V6a.24.24,0,0,1-.07.18.32.32,0,0,1-.2.07H6.63V8.75h3.58a.24.24,0,0,1,.27.27V9.4a.24.24,0,0,1-.07.18.26.26,0,0,1-.2.08H6.63v2.6h3.92a.27.27,0,0,1,.2.07.26.26,0,0,1,.07.2Zm7.4,0a.26.26,0,0,1-.07.19.25.25,0,0,1-.18.08h-.51a.27.27,0,0,1-.27-.16L13.42,7.28v5.65a.25.25,0,0,1-.07.19.29.29,0,0,1-.19.07h-.52a.23.23,0,0,1-.24-.26V5.58a.29.29,0,0,1,.06-.19.25.25,0,0,1,.18-.08h.5a.29.29,0,0,1,.17.05l.11.11,3.77,5.81V5.58a.25.25,0,0,1,.07-.19.26.26,0,0,1,.19-.08H18a.26.26,0,0,1,.2.08.25.25,0,0,1,.07.19Z"/></svg>