<svg id="Layer_2" data-name="Layer 2" xmlns="http://www.w3.org/2000/svg" viewBox="0 0 24 24"><defs><style>.cls-1{fill:#137991;}</style></defs><title>frIcon</title><path class="cls-1" d="M16.84,7.77c0-.93-.56-1.39-1.7-1.39h-1.9V9.17h1.9C16.28,9.17,16.84,8.7,16.84,7.77Z"/><path class="cls-1" d="M21.38.8H2.4A1.76,1.76,0,0,0,.64,2.56V15.91A1.76,1.76,0,0,0,2.4,17.67h9.49l4.94,4.95a.4.4,0,0,0,.68-.29V17.67h3.87a1.76,1.76,0,0,0,1.76-1.76V2.56A1.76,1.76,0,0,0,21.38.8ZM10.7,6.16a.24.24,0,0,1-.07.18.32.32,0,0,1-.2.07H6.65V9H10.2a.26.26,0,0,1,.2.07.23.23,0,0,1,.07.18v.42a.24.24,0,0,1-.07.18.29.29,0,0,1-.2.07H6.65v3a.23.23,0,0,1-.08.18.29.29,0,0,1-.2.07H5.84a.24.24,0,0,1-.18-.07.27.27,0,0,1-.07-.18V5.75a.27.27,0,0,1,.07-.19.25.25,0,0,1,.18-.08h4.59a.28.28,0,0,1,.2.08.24.24,0,0,1,.07.19Zm7.31,7a.25.25,0,0,1-.16.06h-.5a.4.4,0,0,1-.26-.07.67.67,0,0,1-.18-.22l-1.66-2.82h-2v2.86a.23.23,0,0,1-.08.18.26.26,0,0,1-.19.07h-.54a.21.21,0,0,1-.18-.07.23.23,0,0,1-.07-.18V5.75a.24.24,0,0,1,.07-.19.22.22,0,0,1,.18-.08h2.75a3.15,3.15,0,0,1,2,.59,2.08,2.08,0,0,1,.73,1.71,2.13,2.13,0,0,1-.43,1.38,2.26,2.26,0,0,1-1.2.75L18,12.84a.41.41,0,0,1,0,.12A.24.24,0,0,1,18,13.12Z"/></svg>