<svg xmlns="http://www.w3.org/2000/svg" viewBox="0 0 18 18"><defs><style>.cls-1{fill:#754f8b;}.cls-2{fill:#fff;}</style></defs><title>gccollab-icon</title><g id="Layer_6" data-name="Layer 6"><circle class="cls-1" cx="9" cy="9" r="8"/><path class="cls-2" d="M9,12.25a4.72,4.72,0,1,1,4.72-4.72A4.72,4.72,0,0,1,9,12.25Zm0-8.8A4.08,4.08,0,1,0,13.1,7.53,4.08,4.08,0,0,0,9,3.45Z"/><path class="cls-2" d="M7,11.33a1.9,1.9,0,0,1-1.41-.53C4.54,9.73,5.16,7.42,7,5.55s4.18-2.5,5.26-1.42.45,3.38-1.42,5.26h0A5.92,5.92,0,0,1,7,11.33Zm3.85-7.09A5.4,5.4,0,0,0,7.49,6C5.92,7.56,5.27,9.56,6.07,10.35s2.79.15,4.35-1.42,2.21-3.55,1.42-4.35A1.33,1.33,0,0,0,10.88,4.24Z"/><path class="cls-2" d="M10.64,11.47a4.18,4.18,0,0,1-.84-.1,6.14,6.14,0,0,1-2.94-1.7,6.18,6.18,0,0,1-1.7-2.94,2.72,2.72,0,0,1,.58-2.61,2.72,2.72,0,0,1,2.61-.58,6.18,6.18,0,0,1,2.94,1.7A6.14,6.14,0,0,1,13,8.18a2.73,2.73,0,0,1-.58,2.61A2.41,2.41,0,0,1,10.64,11.47ZM7.51,4.08a1.82,1.82,0,0,0-1.32.49,2.12,2.12,0,0,0-.41,2A5.48,5.48,0,0,0,7.31,9.21a5.53,5.53,0,0,0,2.63,1.54,2.15,2.15,0,0,0,2-.41,2.15,2.15,0,0,0,.41-2,5.53,5.53,0,0,0-1.54-2.63A5.48,5.48,0,0,0,8.21,4.16,3.5,3.5,0,0,0,7.51,4.08Z"/><rect class="cls-2" x="8.66" y="3.05" width="0.64" height="8.79" transform="translate(-2.63 8.53) rotate(-45)"/><rect class="cls-2" x="4.59" y="7.23" width="8.79" height="0.64" transform="translate(-2.71 8.56) rotate(-45)"/><rect class="cls-2" x="8.78" y="11.91" width="0.48" height="1.6"/><rect class="cls-2" x="4.19" y="13.05" width="9.6" height="0.85"/><rect class="cls-2" x="7.47" y="12.79" width="3.15" height="1.33"/></g></svg>