<svg xmlns="http://www.w3.org/2000/svg" viewBox="0 0 18 18"><defs><style>.cls-1{fill:#754f8b;}.cls-2{fill:#fff;}</style></defs><title>gcmessage-icon</title><g id="Layer_5" data-name="Layer 5"><circle class="cls-1" cx="9" cy="9" r="8"/><rect class="cls-2" x="3.35" y="4.95" width="11.3" height="8" rx="1" ry="1"/><polygon class="cls-2" points="11.56 15.7 11.58 8.29 5.88 8.29 11.56 15.7"/><path class="cls-1" d="M6.69,10.77v.05H5.28a.3.3,0,0,1-.21-.08A.29.29,0,0,1,5,10.52V10a.61.61,0,0,1,.12-.37.59.59,0,0,1,.33-.21l.34-.09a1.13,1.13,0,0,0,.52.2,1.1,1.1,0,0,0,.56-.1,1.07,1.07,0,0,0-.16.57Zm-.3-1.4a.88.88,0,0,1-.63-.26.84.84,0,0,1-.25-.62.85.85,0,0,1,.88-.88A.84.84,0,0,1,7,7.86a.88.88,0,0,1,.26.63.89.89,0,0,1-.88.88Zm4-.24a.81.81,0,0,1,.5.32.86.86,0,0,1,.19.56v.76a.41.41,0,0,1-.13.32.45.45,0,0,1-.32.14H7.34A.45.45,0,0,1,7,11.09a.41.41,0,0,1-.13-.32V10a.86.86,0,0,1,.19-.56.81.81,0,0,1,.5-.32L8.08,9A1.48,1.48,0,0,0,9,9.3a1.45,1.45,0,0,0,1-.3ZM9,6.4a1.29,1.29,0,0,0-.67.18,1.18,1.18,0,0,0-.47.47,1.29,1.29,0,0,0-.18.67,1.32,1.32,0,0,0,.18.67,1.18,1.18,0,0,0,.47.47,1.34,1.34,0,0,0,1.34,0,1.18,1.18,0,0,0,.47-.47,1.32,1.32,0,0,0,.18-.67,1.29,1.29,0,0,0-.18-.67,1.18,1.18,0,0,0-.47-.47A1.29,1.29,0,0,0,9,6.4Zm2.61,3a.89.89,0,0,1-.88-.88A.88.88,0,0,1,11,7.86a.84.84,0,0,1,.62-.25.85.85,0,0,1,.88.88.84.84,0,0,1-.25.62A.88.88,0,0,1,11.61,9.37Zm1,.06a.59.59,0,0,1,.33.21A.61.61,0,0,1,13,10v.51a.29.29,0,0,1-.09.22.3.3,0,0,1-.21.08H11.31V10a1.1,1.1,0,0,0-.16-.58,1.08,1.08,0,0,0,.53.11,1,1,0,0,0,.55-.2Z"/></g></svg>