<svg xmlns="http://www.w3.org/2000/svg" viewBox="0 0 18 18"><defs><style>.cls-1{fill:#fff;}</style></defs><title>gctools-icon</title><g id="GCcollab_copy_3" data-name="GCcollab copy 3"><g id="GC_Tools_Solid_white" data-name="GC Tools Solid white"><path class="cls-1" d="M11,6.79a1.76,1.76,0,0,1,.71.48,11.46,11.46,0,0,0,3.18-4.41A8.42,8.42,0,0,0,9,.5c-.2,0-.39,0-.58,0A12.37,12.37,0,0,1,11,6.79Z"/><path class="cls-1" d="M7.48.64A7.35,7.35,0,0,1,8.3.54,7.35,7.35,0,0,0,7.48.64Z"/><path class="cls-1" d="M3,8.9a1.66,1.66,0,0,1,1-.29A1.69,1.69,0,0,1,5.59,10a11.59,11.59,0,0,0,3.27-.92,1.7,1.7,0,0,1,1.19-2.33A11.46,11.46,0,0,0,7.35.66a8.49,8.49,0,0,0-6,4.75A11.59,11.59,0,0,0,3,8.9Z"/><path class="cls-1" d="M12.4,13.78A11.38,11.38,0,0,0,16.49,13a8.49,8.49,0,0,0-.95-9.44A12.47,12.47,0,0,1,13,7.32c-.28.29-.58.55-.88.81a2,2,0,0,1,0,.25A1.68,1.68,0,0,1,10.91,10a12.47,12.47,0,0,1-.52,2.19,1.69,1.69,0,0,1,.81,1.44s0,.06,0,.09A12.09,12.09,0,0,0,12.4,13.78Z"/><path class="cls-1" d="M15.5,3.53a8.37,8.37,0,0,0-.57-.62A8.37,8.37,0,0,1,15.5,3.53Z"/><path class="cls-1" d="M5.28,11.31A11.24,11.24,0,0,0,8,12.89a1.68,1.68,0,0,1,1.53-1h0A11.34,11.34,0,0,0,10,10a1.64,1.64,0,0,1-.52-.24,12.23,12.23,0,0,1-4,1.11A1.32,1.32,0,0,1,5.28,11.31Z"/><path class="cls-1" d="M12.4,14.68a12.62,12.62,0,0,1-1.51-.09,1.7,1.7,0,0,1-1.38.71,1.64,1.64,0,0,1-.63-.12A11.92,11.92,0,0,1,7.4,17l-.32.3A8.14,8.14,0,0,0,9,17.5a8.5,8.5,0,0,0,6.69-3.26A12.49,12.49,0,0,1,12.4,14.68Z"/><path class="cls-1" d="M.83,6.67a9.37,9.37,0,0,1,.44-1.19A9.37,9.37,0,0,0,.83,6.67Z"/><path class="cls-1" d="M8.16,14.63a1.66,1.66,0,0,1-.33-.82,12.09,12.09,0,0,1-3.3-1.94,1.69,1.69,0,0,1-2.2-1,12.29,12.29,0,0,1-1.7-.38A8.51,8.51,0,0,0,6.06,17,11.69,11.69,0,0,0,8.16,14.63Z"/><path class="cls-1" d="M15.76,14.14A8.11,8.11,0,0,0,16.48,13,8.11,8.11,0,0,1,15.76,14.14Z"/><path class="cls-1" d="M6.88,17.22c-.23-.06-.45-.12-.67-.2C6.43,17.1,6.65,17.16,6.88,17.22Z"/><path class="cls-1" d="M.6,10.23c0-.2,0-.39-.07-.59C.55,9.84.57,10,.6,10.23Z"/><path class="cls-1" d="M2.29,9.91a1.42,1.42,0,0,1,.1-.29A11.76,11.76,0,0,1,.81,6.76,8.3,8.3,0,0,0,.5,9c0,.16,0,.31,0,.47A11.45,11.45,0,0,0,2.29,9.91Z"/></g></g></svg>