<svg xmlns="http://www.w3.org/2000/svg" viewBox="0 0 18 18"><defs><style>.cls-1{fill:#754f8b;}.cls-2{fill:#fff;}</style></defs><title>gcwiki icon</title><g id="GCcollab_copy_3" data-name="GCcollab copy 3"><g id="GC_Tools_Solid_white" data-name="GC Tools Solid white"><path class="cls-1" d="M14.52,3.21A8,8,0,0,0,9,1L8.45,1a11.64,11.64,0,0,1,2.47,6.84A10.87,10.87,0,0,0,14.52,3.21Z"/><path class="cls-1" d="M10.9,8.92a11.57,11.57,0,0,1-1.09,4.31,11.08,11.08,0,0,0,2.39.26,11,11,0,0,0,3.85-.7,8,8,0,0,0-.89-8.9,11.61,11.61,0,0,1-2.43,3.53A12.48,12.48,0,0,1,10.9,8.92Z"/><path class="cls-1" d="M4.46,10a10.74,10.74,0,0,0,5.61-1.57c0-.07,0-.14,0-.21A10.78,10.78,0,0,0,7.45,1.15a8,8,0,0,0-5.7,4.46A11,11,0,0,0,4.22,10Z"/><path class="cls-1" d="M1.28,6.88A8.27,8.27,0,0,0,1,9c0,.15,0,.29,0,.44a11.3,11.3,0,0,0,2,.47A11.91,11.91,0,0,1,1.28,6.88Z"/><path class="cls-1" d="M8.55,13.77a11.61,11.61,0,0,1-4.63-2.86l-.08-.08a11.73,11.73,0,0,1-2.72-.46,8,8,0,0,0,5.11,6.14A11.08,11.08,0,0,0,8.55,13.77Z"/><path class="cls-1" d="M9.4,14A11.66,11.66,0,0,1,7.5,16.5l-.31.29A7.73,7.73,0,0,0,9,17a8,8,0,0,0,6.3-3.07,11.88,11.88,0,0,1-3.1.41A11.79,11.79,0,0,1,9.4,14Z"/><path class="cls-1" d="M5.08,10.83A10.87,10.87,0,0,0,9,13a11.13,11.13,0,0,0,1-3.55A11.52,11.52,0,0,1,5.08,10.83Z"/><path class="cls-2" d="M12.2,13.49a10.74,10.74,0,0,1-1.14-.06.28.28,0,0,0,0-.09A1.6,1.6,0,0,0,10.31,12a11.89,11.89,0,0,0,.49-2.06,1.58,1.58,0,0,0,1.11-1.51,1.93,1.93,0,0,0,0-.24c.28-.24.56-.49.83-.76a11.61,11.61,0,0,0,2.43-3.53,8.18,8.18,0,0,0-.64-.68,11,11,0,0,1-3,4.17,1.5,1.5,0,0,0-.67-.46A11.6,11.6,0,0,0,8.45,1a8,8,0,0,0-1,.13A10.8,10.8,0,0,1,10,6.86,1.59,1.59,0,0,0,8.74,8.42a1.53,1.53,0,0,0,.13.64,10.9,10.9,0,0,1-3.08.86,1.59,1.59,0,0,0-2.45-1A10.9,10.9,0,0,1,1.75,5.61a8.73,8.73,0,0,0-.47,1.27,12,12,0,0,0,1.49,2.7l-.09.27A10.44,10.44,0,0,1,1,9.44a7.37,7.37,0,0,0,.11.93,12.32,12.32,0,0,0,1.6.35,1.6,1.6,0,0,0,1.51,1.09,1.56,1.56,0,0,0,.57-.11,11.31,11.31,0,0,0,3.1,1.83,1.5,1.5,0,0,0,.31.77,11.27,11.27,0,0,1-2,2.21,7.58,7.58,0,0,0,1,.28l.31-.29a11.7,11.7,0,0,0,1.39-1.68,1.63,1.63,0,0,0,.59.11,1.59,1.59,0,0,0,1.3-.67,13.37,13.37,0,0,0,1.42.08,11.88,11.88,0,0,0,3.1-.41,8.62,8.62,0,0,0,.75-1.14A11,11,0,0,1,12.2,13.49ZM9.49,11.76h0A1.59,1.59,0,0,0,8,12.67,11.29,11.29,0,0,1,5.5,11.18a1.94,1.94,0,0,0,.22-.4,11.58,11.58,0,0,0,3.72-1,1.73,1.73,0,0,0,.5.22A11.85,11.85,0,0,1,9.49,11.76Z"/></g></g></svg>