<svg id="Layer_1" data-name="Layer 1" xmlns="http://www.w3.org/2000/svg" viewBox="0 0 764 764"><defs><style>.cls-1{fill:#f2f2f2;}</style></defs><title>mobile-bg-flare</title><g id="GC_Tools_Solid_white" data-name="GC Tools Solid white"><path class="cls-1" d="M933.23,958.43a1120,1120,0,0,1-116.44-6.14c.17-3.07.28-6.15.28-9.26A163.22,163.22,0,0,0,739,803.73a1194.29,1194.29,0,0,0,50.55-211.09A163.4,163.4,0,0,0,904.18,436.7a165.24,165.24,0,0,0-1.84-24.52q44.45-36.71,85.81-78c106.29-106.28,190.22-229,249.46-362.34a826.43,826.43,0,0,0-65.55-70.27A1120.77,1120.77,0,0,1,864.15,329.66,163.58,163.58,0,0,0,795,282.6,1190.68,1190.68,0,0,0,547.81-323.52,823,823,0,0,0,445.39-310C584.84-148,678.59,54.42,706.53,277a163.32,163.32,0,0,0-115,225.81,1106,1106,0,0,1-316.38,88.12A163.33,163.33,0,0,0,22.93,486.72a1112.35,1112.35,0,0,1-162.8-338.91,816.9,816.9,0,0,0-48.32,131.11A1192.54,1192.54,0,0,0-35,556.52a161.9,161.9,0,0,0-9.25,27.88,1107.52,1107.52,0,0,1-171.88-42.67A821.84,821.84,0,0,0-205.38,637,1199.76,1199.76,0,0,0-40.25,673.33a163.33,163.33,0,0,0,212.93,101.2A1194.06,1194.06,0,0,0,491.55,962.14a162.5,162.5,0,0,0,31.85,79.32A1125,1125,0,0,1,319.88,1268a815.47,815.47,0,0,0,98.67,29.54c10.67-9.94,21.25-20,31.62-30.39a1215,1215,0,0,0,143.08-172.38,163.24,163.24,0,0,0,194.17-57.94,1217.81,1217.81,0,0,0,145.81,8.73,1208.91,1208.91,0,0,0,319.21-42.62A824.2,824.2,0,0,0,1329,885.83,1109.86,1109.86,0,0,1,933.23,958.43ZM654.58,779.72l-.85,0A163.31,163.31,0,0,0,506,873.28a1116.19,1116.19,0,0,1-261-153,163.12,163.12,0,0,0,22.48-40.71,1192.48,1192.48,0,0,0,382.56-107,162.37,162.37,0,0,0,50.84,22.59A1106.54,1106.54,0,0,1,654.58,779.72Z"/></g></svg>